<?xml version="1.0" standalone="no"?><!DOCTYPE svg PUBLIC "-//W3C//DTD SVG 1.1//EN" "http://www.w3.org/Graphics/SVG/1.1/DTD/svg11.dtd"><svg t="1767750684776" class="icon" viewBox="0 0 1024 1024" version="1.1" xmlns="http://www.w3.org/2000/svg" p-id="1620" xmlns:xlink="http://www.w3.org/1999/xlink" width="16" height="16"><path d="M512 17.066667a494.933333 494.933333 0 1 1 0 989.866666A494.933333 494.933333 0 0 1 512 17.066667z m0 79.644444a415.288889 415.288889 0 1 0 0 830.577778A415.288889 415.288889 0 0 0 512 96.711111zM285.866667 460.8l199.111111-183.637333a39.822222 39.822222 0 0 1 49.208889-3.754667l4.835555 3.754667 199.111111 183.694222a39.822222 39.822222 0 0 1-48.924444 62.577778l-5.12-4.039111L551.822222 397.368889V768a39.822222 39.822222 0 0 1-34.417778 39.480889L512 807.822222a39.822222 39.822222 0 0 1-39.480889-34.417778L472.177778 768V397.312L339.911111 519.395556a39.822222 39.822222 0 0 1-51.541333 2.104888l-4.778667-4.380444a39.822222 39.822222 0 0 1-2.104889-51.484444l4.380445-4.778667 199.111111-183.694222-199.111111 183.694222z" fill="#ffffff" p-id="1621" data-spm-anchor-id="a313x.search_index.0.i2.2f833a81UglKl0" class="selected"></path></svg>
